<svg width="25" height="25" viewBox="0 0 25 25" fill="none" xmlns="http://www.w3.org/2000/svg">
<path d="M21.8749 13.4237L12.5 22.7086L3.125 13.4237C2.50664 12.8219 2.01956 12.0987 1.69444 11.2995C1.36933 10.5003 1.21321 9.64238 1.23593 8.77986C1.25865 7.91734 1.45971 7.06887 1.82645 6.28787C2.1932 5.50688 2.71767 4.81028 3.36686 4.24194C4.01605 3.6736 4.77588 3.24583 5.59851 2.98557C6.42114 2.72531 7.28875 2.6382 8.1467 2.72972C9.00465 2.82124 9.83435 3.08941 10.5836 3.51735C11.3328 3.94528 11.9853 4.52371 12.5 5.21621C13.0169 4.52874 13.6701 3.95536 14.4188 3.53197C15.1675 3.10858 15.9956 2.84428 16.8511 2.75562C17.7067 2.66696 18.5713 2.75584 19.3909 3.01671C20.2105 3.27757 20.9675 3.7048 21.6144 4.27167C22.2613 4.83853 22.7842 5.53281 23.1505 6.31107C23.5167 7.08933 23.7184 7.9348 23.7428 8.79458C23.7673 9.65436 23.614 10.5099 23.2926 11.3077C22.9712 12.1056 22.4886 12.8285 21.8749 13.4312" stroke="#D2D2D2" stroke-width="1.64619" stroke-linecap="round" stroke-linejoin="round"/>
</svg>
